<svg width="40" height="43" viewBox="0 0 40 43" fill="none" xmlns="http://www.w3.org/2000/svg">
<path fill-rule="evenodd" clip-rule="evenodd" d="M39.8344 30.1011C39.9257 31.6618 39.9215 33.2226 39.8344 34.7833C26.5776 34.7839 13.3207 34.7845 0.0638432 34.7857C-0.0184603 33.2959 -0.0244685 31.806 0.065044 30.3161C4.62297 30.3167 9.1815 30.3209 13.74 30.3137C14.3162 30.3131 14.9938 30.4681 15.2041 29.6415C15.3434 29.6457 15.499 29.6108 15.6198 29.6607C18.5683 30.8724 21.5066 30.7505 24.4425 29.6187C24.827 30.0464 25.3136 30.1167 25.8687 30.1149C30.5239 30.0969 35.1792 30.1029 39.8344 30.1011Z" fill="white"/>
<path fill-rule="evenodd" clip-rule="evenodd" d="M0.0638895 34.7861C13.3208 34.7849 26.5776 34.7843 39.8345 34.7837C39.9246 35.3574 39.9174 35.9311 39.8327 36.5043C39.8092 36.5199 39.7648 36.5397 39.7672 36.5511C39.7756 36.5986 39.7978 36.6424 39.8153 36.6881C39.7606 37.5388 39.5924 38.354 39.0823 39.0641C26.5205 39.0593 13.9594 39.0533 1.39696 39.0503C1.22094 39.0503 1.04492 39.0797 0.869504 39.0959L0.892935 39.0989C0.835863 39.0094 0.77939 38.9205 0.721717 38.831C-0.0622683 37.5748 -0.0466494 36.1883 0.0638895 34.7861Z" fill="white"/>
<path fill-rule="evenodd" clip-rule="evenodd" d="M0.868896 39.0955C1.04432 39.0792 1.22034 39.0498 1.39636 39.0498C13.9588 39.0528 26.5199 39.0588 39.0817 39.0636C37.828 41.4937 35.7499 42.7703 33.1006 42.7937C24.3212 42.8712 15.5399 42.8718 6.76051 42.7925C4.14842 42.7685 2.11727 41.4684 0.868896 39.0955Z" fill="white"/>
<path fill-rule="evenodd" clip-rule="evenodd" d="M0.0698704 16.6955C0.00378735 15.369 -0.231703 13.9963 1.05992 13.0375C1.4426 13.4899 1.94843 13.5133 2.49752 13.5121C8.69852 13.5001 14.8989 13.5049 21.0993 13.5049C26.5205 13.5049 31.9417 13.5085 37.3629 13.4989C37.8586 13.4983 38.4936 13.6923 38.5999 12.8789C39.2469 13.2255 39.6026 13.774 39.7167 14.4901C39.6969 15.2267 39.6777 15.9632 39.6578 16.6991C37.0457 16.6985 34.4337 16.6937 31.8222 16.6991C30.9937 16.7003 30.1563 16.3909 29.3387 16.767C29.2053 16.7532 29.0725 16.7388 28.9392 16.7249C28.038 16.439 27.1315 16.7021 26.228 16.7015C21.0915 16.6991 15.9544 16.7117 10.818 16.7195C10.7471 16.7309 10.6762 16.7424 10.6053 16.7538C7.0939 16.7339 3.58188 16.7147 0.0698704 16.6955Z" fill="white"/>
<path fill-rule="evenodd" clip-rule="evenodd" d="M38.6005 12.8779C38.4942 13.6913 37.8592 13.4967 37.3635 13.4979C31.9423 13.5075 26.5211 13.5039 21.0999 13.5039C14.8989 13.5039 8.69852 13.4997 2.49813 13.5111C1.94904 13.5123 1.4438 13.4895 1.06052 13.0365C1.38913 12.649 1.79825 12.4214 2.3143 12.4051C4.36647 12.4165 6.41806 12.4292 8.46963 12.4364C8.74418 12.437 9.04996 12.4964 9.21456 12.1732C9.29386 11.0558 9.03314 9.915 9.44346 8.81982C10.4407 8.81982 11.438 8.81982 12.4352 8.81982C12.4262 9.34789 12.2724 9.84952 12.1757 10.3614C12.0585 10.9813 11.6656 11.7101 12.4244 12.2411C12.6413 12.4916 12.9375 12.4376 13.2138 12.4376C17.6978 12.4394 22.1825 12.4406 26.6665 12.4358C26.9687 12.4352 27.3177 12.5361 27.5208 12.1804C27.5286 11.2733 27.537 10.3656 27.5448 9.45903C28.5355 9.45903 29.5261 9.45903 30.5173 9.45903C30.6765 10.3848 30.2296 11.3574 30.733 12.2567C30.9228 12.4616 31.1734 12.44 31.4173 12.4388C33.4809 12.4304 35.5445 12.422 37.6087 12.4123C37.8448 12.7692 38.3854 12.4772 38.6005 12.8779Z" fill="white"/>
<path fill-rule="evenodd" clip-rule="evenodd" d="M15.2041 29.6413C14.9938 30.4679 14.3162 30.3129 13.7401 30.3135C9.18215 30.3214 4.62361 30.3171 0.0650852 30.3159C-0.0184197 28.8976 -0.0214199 27.4786 0.0668911 26.0602C3.06105 26.0602 6.05582 26.047 9.05058 26.0728C9.7066 26.0782 10.3026 25.9983 10.8312 25.5952C11.9666 27.2923 13.5761 28.477 15.2041 29.6413Z" fill="white"/>
<path fill-rule="evenodd" clip-rule="evenodd" d="M39.8344 30.101C35.1792 30.1022 30.5239 30.0968 25.8693 30.1142C25.3142 30.116 24.8276 30.0458 24.4431 29.618C26.3991 28.6088 27.9575 27.1549 29.2119 25.3599C29.4335 25.9168 29.9184 25.8483 30.3737 25.8483C33.4694 25.8471 36.5651 25.8465 39.6608 25.8453C39.7209 26.2003 39.5388 26.5986 39.8506 26.9092C39.8446 27.9738 39.8398 29.0377 39.8344 30.101Z" fill="white"/>
<path fill-rule="evenodd" clip-rule="evenodd" d="M11.1208 4.70651C14.8857 -1.18149 23.9805 -1.78284 28.4195 4.25595C28.4075 4.68909 28.3012 5.05075 27.7581 4.98466C26.9332 4.88434 26.1529 5.18832 25.3436 5.22497C22.0335 2.34314 17.9165 2.4645 14.7776 4.99307C14.7025 5.06216 14.6274 5.13125 14.5523 5.20034L14.5505 5.20214C13.6668 5.20214 12.783 5.19793 11.8987 5.20394C11.5257 5.20694 11.176 5.19252 11.1208 4.70651Z" fill="white"/>
<path fill-rule="evenodd" clip-rule="evenodd" d="M10.8312 25.595C10.3025 25.9981 9.70598 26.078 9.05055 26.0726C6.05639 26.0474 3.06163 26.0606 0.0668644 26.06C-0.015439 24.7119 -0.0214473 23.3644 0.0680652 22.0169C2.77567 22.0169 5.48387 22.0223 8.19148 22.0121C8.61681 22.0109 9.15689 22.1821 9.27704 21.5015C9.61887 22.7408 9.97932 23.9736 10.5296 25.1414C10.5885 25.2352 10.6474 25.3289 10.7062 25.422C10.7483 25.4797 10.7903 25.5373 10.8312 25.595Z" fill="white"/>
<path fill-rule="evenodd" clip-rule="evenodd" d="M39.6608 25.8451C36.5651 25.8463 33.4688 25.8469 30.3737 25.8481C29.9184 25.8481 29.4336 25.9166 29.2119 25.3597C29.7099 24.1954 30.2049 23.0312 30.5287 21.8032C31.2557 22.2304 32.0493 22.2466 32.8663 22.2382C35.1311 22.2141 37.396 22.2292 39.6602 22.2286C39.7239 22.3006 39.7876 22.3733 39.8513 22.446C39.8513 22.729 39.8513 23.0125 39.8513 23.2955C39.5731 23.7208 39.5731 24.1462 39.8507 24.5715C39.8501 24.9938 39.8501 25.4168 39.8495 25.8397C39.7864 25.8379 39.7233 25.8397 39.6608 25.8451Z" fill="white"/>
<path fill-rule="evenodd" clip-rule="evenodd" d="M29.3387 16.7666C30.1569 16.3905 30.9944 16.6999 31.8228 16.6981C34.4343 16.6927 37.0464 16.6975 39.6585 16.6981C39.7222 16.7041 39.7858 16.7059 39.8495 16.7041C39.8495 17.5511 39.8495 18.3982 39.8495 19.2453C39.7858 19.3186 39.7216 19.3918 39.6579 19.4651C36.6817 19.4645 33.705 19.4633 30.7289 19.4621C30.64 18.3706 30.7229 17.1907 29.3387 16.7666Z" fill="white"/>
<path fill-rule="evenodd" clip-rule="evenodd" d="M0.0698724 16.6953C3.58189 16.7151 7.0933 16.7338 10.6053 16.7536C9.91385 17.0137 9.2362 17.2877 9.19235 18.1864C9.16051 19.4185 8.41256 19.5177 7.38467 19.487C4.94801 19.4149 2.50774 19.463 0.0686716 19.463C-0.0160349 18.5402 -0.0196401 17.6175 0.0698724 16.6953Z" fill="white"/>
<path fill-rule="evenodd" clip-rule="evenodd" d="M30.7288 19.4629C33.705 19.4635 36.6817 19.4647 39.6579 19.4659C39.7215 19.4719 39.7858 19.4737 39.8501 19.4719C39.8501 20.0366 39.8501 20.6013 39.8501 21.166C39.5407 21.4766 39.7197 21.8737 39.6603 22.2294C37.3954 22.23 35.1306 22.2149 32.8663 22.239C32.0499 22.248 31.2563 22.2318 30.5288 21.804C30.5408 21.6598 30.5522 21.5157 30.5642 21.3715C30.7871 21.1612 30.7174 20.8951 30.7042 20.6392C30.712 20.2463 30.7204 19.8546 30.7288 19.4629Z" fill="white"/>
<path fill-rule="evenodd" clip-rule="evenodd" d="M0.0686951 19.4626C2.50776 19.4626 4.94803 19.4146 7.3847 19.4867C8.41259 19.5173 9.16053 19.4182 9.19237 18.186C9.2206 19.2914 9.24884 20.3968 9.27768 21.5022C9.15753 22.1823 8.61744 22.011 8.19211 22.0128C5.4845 22.0231 2.7763 22.0177 0.0686951 22.0177C0.0686951 21.1658 0.0686951 20.3145 0.0686951 19.4626Z" fill="white"/>
<path fill-rule="evenodd" clip-rule="evenodd" d="M25.3442 5.22586C26.1529 5.18921 26.9338 4.88583 27.7587 4.98555C28.3018 5.05164 28.4087 4.68938 28.4201 4.25684C29.7177 5.74971 30.3972 7.4913 30.5179 9.45938C29.5273 9.45938 28.5366 9.45938 27.5454 9.45938C27.2048 7.84335 26.4082 6.46521 25.3442 5.22586Z" fill="white"/>
<path fill-rule="evenodd" clip-rule="evenodd" d="M11.1208 4.70654C11.176 5.19255 11.5257 5.20697 11.9 5.20457C12.7837 5.19856 13.6674 5.20277 14.5517 5.20277C13.6632 6.30095 12.8239 7.42856 12.4364 8.81991C11.4392 8.81991 10.4419 8.81991 9.44467 8.81991C9.60387 7.28679 10.1451 5.90805 11.1208 4.70654Z" fill="white"/>
<path fill-rule="evenodd" clip-rule="evenodd" d="M9.21457 12.1733C9.04996 12.4965 8.74418 12.4377 8.46964 12.4365C6.41746 12.4293 4.36648 12.416 2.3143 12.4052C3.15295 12.0268 4.03847 12.2592 4.90115 12.228C6.33816 12.1757 7.77636 12.1884 9.21457 12.1733Z" fill="white"/>
<path fill-rule="evenodd" clip-rule="evenodd" d="M37.6086 12.4124C35.5444 12.422 33.4808 12.4304 31.4172 12.4389C31.1733 12.4401 30.9228 12.4617 30.733 12.2568C32.7954 12.2454 34.8578 12.2316 36.9202 12.2238C37.1635 12.2226 37.414 12.2238 37.6086 12.4124Z" fill="white"/>
<path fill-rule="evenodd" clip-rule="evenodd" d="M39.8495 16.7042C39.7858 16.706 39.7221 16.7042 39.6584 16.6982C39.6783 15.9617 39.6975 15.2252 39.7173 14.4893C40.0531 15.2102 39.9005 15.9605 39.8495 16.7042Z" fill="white"/>
<path fill-rule="evenodd" clip-rule="evenodd" d="M39.6596 22.2289C39.7191 21.8738 39.5401 21.4761 39.8494 21.1655C39.942 21.5921 39.9402 22.0186 39.8506 22.4457C39.787 22.3736 39.7233 22.301 39.6596 22.2289Z" fill="white"/>
<path fill-rule="evenodd" clip-rule="evenodd" d="M39.8507 24.5719C39.5731 24.1466 39.5731 23.7212 39.8513 23.2959C39.9408 23.7212 39.9408 24.1466 39.8507 24.5719Z" fill="white"/>
<path fill-rule="evenodd" clip-rule="evenodd" d="M39.6609 25.8457C39.7233 25.8403 39.7864 25.8385 39.8495 25.8397C39.9372 26.1966 39.9366 26.5534 39.8507 26.9097C39.5389 26.5997 39.7209 26.2008 39.6609 25.8457Z" fill="white"/>
<path fill-rule="evenodd" clip-rule="evenodd" d="M39.8501 19.4715C39.7858 19.4733 39.7215 19.4715 39.6579 19.4655C39.7209 19.3916 39.7852 19.3183 39.8489 19.2456C39.8495 19.3207 39.8495 19.3958 39.8501 19.4715Z" fill="white"/>
<path fill-rule="evenodd" clip-rule="evenodd" d="M39.8152 36.6877C39.7978 36.6421 39.7756 36.5982 39.7672 36.5508C39.7647 36.5394 39.8098 36.5195 39.8326 36.5039C39.8723 36.57 39.8669 36.6313 39.8152 36.6877Z" fill="white"/>
<path fill-rule="evenodd" clip-rule="evenodd" d="M0.72171 38.8296C0.778782 38.9191 0.835856 39.0074 0.892928 39.0975C0.835856 39.0086 0.778782 38.9191 0.72171 38.8296Z" fill="white"/>
<path fill-rule="evenodd" clip-rule="evenodd" d="M28.9398 16.7248C27.9197 17.1249 27.5268 17.877 27.5977 18.9566C27.6361 19.5447 27.5436 20.1431 27.5106 20.736C23.0241 20.7372 18.5377 20.7402 14.0513 20.7402C12.4509 20.7402 12.4472 20.7162 12.4172 19.1633C12.4076 18.6923 12.6173 18.1678 12.1967 17.7539C11.8861 17.2114 11.3713 16.9405 10.8186 16.7188C15.9551 16.711 21.0921 16.6984 26.2286 16.7008C27.1315 16.7014 28.0386 16.4388 28.9398 16.7248Z" fill="white"/>
<path fill-rule="evenodd" clip-rule="evenodd" d="M12.425 12.2415C16.9973 12.2342 21.5697 12.2276 26.1414 12.2174C26.6016 12.2162 27.0618 12.1934 27.5214 12.1802C27.3183 12.5352 26.9693 12.4349 26.6671 12.4355C22.1831 12.4409 17.6984 12.4397 13.2144 12.4373C12.9374 12.4379 12.6419 12.492 12.425 12.2415Z" fill="white"/>
<path fill-rule="evenodd" clip-rule="evenodd" d="M14.7782 4.99365C14.7031 5.06274 14.628 5.13183 14.5529 5.20091C14.628 5.13183 14.7031 5.06214 14.7782 4.99365Z" fill="white"/>
<path fill-rule="evenodd" clip-rule="evenodd" d="M30.5642 21.3714C30.536 21.1136 30.5348 20.8607 30.7036 20.6396C30.7174 20.8944 30.7865 21.1611 30.5642 21.3714Z" fill="white"/>
<path fill-rule="evenodd" clip-rule="evenodd" d="M12.1961 17.7539C12.6166 18.1672 12.407 18.6923 12.4166 19.1633C12.4466 20.7162 12.4502 20.7403 14.0506 20.7403C18.5371 20.7403 23.0241 20.7373 27.51 20.7361C27.4445 22.3094 26.7734 23.6197 25.7551 24.7797C24.9645 24.9906 24.1583 25.0056 23.3455 25.0032C20.3399 24.9912 17.3338 25.0002 14.3282 25.0014C12.9488 23.6503 12.3457 21.967 12.246 20.0782C12.2045 19.3045 12.2111 18.5283 12.1961 17.7539Z" fill="white"/>
<path fill-rule="evenodd" clip-rule="evenodd" d="M14.3282 25.0005C17.3338 24.9999 20.34 24.9909 23.3456 25.0023C24.159 25.0047 24.9646 24.9897 25.7552 24.7788C22.9839 28.3227 17.1914 28.435 14.3282 25.0005Z" fill="white"/>
</svg>
