<svg width="32" height="32" viewBox="0 0 32 32" fill="none" xmlns="http://www.w3.org/2000/svg">
<path d="M4.1083 19.34C3.86722 18.5377 3.75983 17.7551 3.66858 16.9686C3.64566 16.7704 3.70381 16.7075 3.90075 16.7164C4.20635 16.7296 4.51323 16.7198 4.81968 16.7194C5.46993 16.7186 5.79845 16.4724 5.79379 15.9932C5.78869 15.5174 5.46314 15.2839 4.80313 15.2835C4.49667 15.2831 4.19022 15.2754 3.8842 15.2865C3.70423 15.2928 3.64948 15.2372 3.66688 15.0526C3.81162 13.5305 4.1864 12.0738 4.84812 10.6914C4.94532 10.4881 5.02214 10.4762 5.18895 10.5997C5.31458 10.6931 5.45889 10.7653 5.60236 10.8306C5.96399 10.9949 6.35533 10.8676 6.53954 10.5352C6.72035 10.2092 6.63462 9.83233 6.32519 9.6027C6.26195 9.55559 6.19319 9.51442 6.12528 9.4741C5.67791 9.20924 5.67282 9.20585 5.98521 8.77673C6.82774 7.62054 7.83623 6.63455 9.01492 5.8213C9.16263 5.71944 9.23308 5.71604 9.31288 5.88624C9.38886 6.04966 9.48436 6.2067 9.59004 6.35271C9.81373 6.66086 10.2046 6.73981 10.5251 6.55475C10.8443 6.37054 10.9729 5.99108 10.8201 5.64389C10.7479 5.4792 10.6618 5.31663 10.5574 5.17062C10.4415 5.00933 10.5013 4.95713 10.655 4.882C12.0434 4.20416 13.5136 3.83362 15.0467 3.68676C15.208 3.67148 15.2717 3.71265 15.2674 3.88285C15.2585 4.25679 15.2581 4.63158 15.2666 5.00594C15.2785 5.5123 15.5557 5.81706 15.9873 5.81409C16.4186 5.81154 16.6881 5.50806 16.6995 4.99703C16.7076 4.63412 16.708 4.27037 16.6983 3.90789C16.6936 3.73345 16.7386 3.66893 16.9283 3.68633C18.4508 3.82725 19.9067 4.20543 21.2895 4.8646C21.4839 4.95713 21.5217 5.03353 21.3871 5.20331C21.3107 5.29966 21.2568 5.41468 21.1987 5.52461C20.9805 5.93293 21.0811 6.35016 21.4444 6.55644C21.8018 6.75933 22.191 6.64643 22.4359 6.26443C22.5153 6.14049 22.5985 6.01697 22.6558 5.88242C22.7339 5.69736 22.8162 5.72877 22.9542 5.82427C24.2186 6.69779 25.284 7.7674 26.1622 9.02843C26.2857 9.20542 26.2403 9.26824 26.0752 9.34676C25.9228 9.41934 25.7747 9.50678 25.6376 9.60525C25.3269 9.82851 25.2449 10.2152 25.4275 10.5378C25.6087 10.8582 25.9873 10.9919 26.3353 10.8412C26.5106 10.7648 26.6758 10.663 26.8396 10.5632C26.9563 10.4923 27.0179 10.4856 27.0892 10.6341C27.691 11.8879 28.0896 13.2016 28.2377 14.5853C28.312 15.281 28.2942 15.2814 27.5989 15.2835C27.3273 15.2848 27.0531 15.2767 26.7836 15.3052C26.4143 15.3442 26.1728 15.635 26.1711 15.9974C26.1698 16.3608 26.41 16.6647 26.7776 16.6935C27.2063 16.7266 27.6388 16.7224 28.0696 16.7143C28.2734 16.7109 28.3175 16.781 28.2954 16.9724C28.2042 17.7593 28.0972 18.542 27.8561 19.3408C27.0348 18.8582 26.1342 18.9206 25.2407 18.921C18.8965 18.9223 12.5527 18.9244 6.20889 18.9176C5.48691 18.9172 4.7853 18.9703 4.1083 19.34ZM15.2624 11.6388C15.2624 12.5581 15.2624 13.4779 15.2624 14.3973C15.2624 14.8463 14.8298 15.2814 14.3833 15.2814C13.0327 15.2818 11.6821 15.2793 10.3316 15.2822C9.78232 15.2835 9.44234 15.5675 9.44658 16.0055C9.4504 16.4461 9.78444 16.7135 10.3405 16.7211C10.4088 16.722 10.4767 16.7211 10.5446 16.7211C11.8269 16.7211 13.1096 16.7249 14.3922 16.7177C14.61 16.7164 14.7581 16.7665 14.9101 16.9465C15.4508 17.5887 16.3961 17.6146 16.9911 17.031C17.5968 16.4363 17.5781 15.4792 16.9245 14.9261C16.7441 14.7737 16.6983 14.6231 16.6991 14.4066C16.7055 12.6133 16.7029 10.8196 16.7017 9.02673C16.7017 8.89091 16.7012 8.75296 16.6792 8.61968C16.5994 8.1269 16.0798 7.86969 15.6444 8.10483C15.3341 8.27206 15.2607 8.55602 15.2619 8.88115C15.2645 9.8005 15.2628 10.7194 15.2624 11.6388Z" fill="white"/>
<path d="M15.9856 20.3608C19.3341 20.3608 22.6821 20.3604 26.0306 20.3608C27.4037 20.3613 28.3269 21.2428 28.3366 22.618C28.3536 24.9903 28.354 27.3625 28.3362 29.7348C28.3265 31.096 27.3855 31.9983 26.0238 31.9988C19.3273 32.0005 12.6308 32.0009 5.9343 31.9988C4.57734 31.9983 3.63634 31.087 3.62786 29.7284C3.61258 27.3562 3.62786 24.9843 3.62191 22.6117C3.61809 21.138 4.84772 20.3341 5.94067 20.3468C9.28913 20.385 12.6376 20.3608 15.9856 20.3608ZM7.75009 22.5399C7.31927 22.5399 6.96741 22.534 6.61596 22.5412C6.12658 22.5514 5.81885 22.8477 5.82819 23.2861C5.8371 23.7097 6.13761 23.9754 6.62276 23.9776C7.23566 23.9809 7.84856 23.9873 8.46104 23.9737C8.67071 23.9691 8.7399 24.0319 8.72971 24.2411C8.71401 24.5582 8.71443 24.877 8.72971 25.194C8.73905 25.399 8.68048 25.4733 8.46486 25.4652C8.03404 25.4491 7.60196 25.4521 7.17157 25.4652C6.46529 25.486 5.85239 26.0905 5.83244 26.7942C5.81673 27.3498 5.81716 27.9067 5.83244 28.4623C5.85069 29.1057 6.37191 29.6987 7.00985 29.7615C7.84601 29.8434 8.68726 29.8133 9.52555 29.7764C9.86765 29.7611 10.0935 29.5179 10.141 29.2004C10.2119 28.7275 9.91562 28.3786 9.39652 28.3659C8.76155 28.3498 8.12573 28.3561 7.49033 28.3642C7.318 28.3663 7.25221 28.3243 7.2607 28.1393C7.27598 27.7993 7.27641 27.4584 7.2607 27.1185C7.25179 26.9321 7.3197 26.8922 7.49118 26.8965C7.89949 26.9075 8.30824 26.9101 8.71656 26.8973C9.50348 26.8727 10.1007 26.3235 10.1457 25.5412C10.1784 24.9763 10.1733 24.4062 10.1389 23.8413C10.1007 23.2165 9.66732 22.7505 9.06121 22.5972C8.60068 22.4797 8.13379 22.5743 7.75009 22.5399ZM15.9827 26.1893C15.9827 25.2475 15.9865 24.3061 15.981 23.3642C15.978 22.8804 15.6737 22.5438 15.2577 22.5425C14.8426 22.5412 14.5476 22.8782 14.5451 23.363C14.5425 23.9754 14.5353 24.5888 14.5493 25.2008C14.5544 25.416 14.4861 25.4758 14.2794 25.4652C13.9623 25.4491 13.6435 25.4487 13.3265 25.4652C13.1193 25.4758 13.0519 25.4156 13.0565 25.2008C13.071 24.5883 13.0637 23.9754 13.0608 23.3625C13.0587 22.8782 12.7624 22.5412 12.3473 22.5425C11.9317 22.5433 11.6291 22.8799 11.6249 23.3642C11.6189 24.0455 11.6155 24.7258 11.6257 25.4067C11.6385 26.2645 12.253 26.8782 13.1096 26.8973C13.5069 26.9062 13.9042 26.9084 14.301 26.8948C14.4916 26.888 14.5523 26.9427 14.5489 27.1384C14.537 27.7853 14.5383 28.4321 14.548 29.079C14.5544 29.5013 14.8515 29.7882 15.2547 29.7891C15.6856 29.7904 15.9776 29.475 15.981 28.9809C15.9869 28.0501 15.9827 27.1197 15.9827 26.1893ZM24.3821 23.9784C24.3451 24.0845 24.3286 24.1367 24.3095 24.1877C23.7365 25.7182 23.1597 27.2475 22.5922 28.7802C22.4394 29.1932 22.6113 29.5977 22.972 29.7424C23.3591 29.8973 23.7759 29.7178 23.936 29.2938C24.5408 27.6919 25.149 26.0905 25.7267 24.478C26.0743 23.5077 25.3961 22.5671 24.3621 22.5425C23.773 22.5289 23.1834 22.534 22.5939 22.5416C22.124 22.548 21.8142 22.8375 21.8082 23.2547C21.8027 23.6906 22.1121 23.9742 22.6075 23.9776C23.1847 23.9814 23.7619 23.9784 24.3821 23.9784ZM17.4589 29.6651C17.439 30.1405 17.6839 30.4559 18.0412 30.5102C18.416 30.5671 18.7318 30.3659 18.8481 29.9954C18.8685 29.9304 18.8893 29.8655 18.9024 29.7993C19.3659 27.4623 19.8294 25.1253 20.2917 22.7878C20.3889 22.2993 20.1822 21.9279 19.7709 21.8481C19.3222 21.7611 19.0026 21.9848 18.902 22.4793C18.5595 24.1609 18.2238 25.8443 17.8859 27.5268C17.7373 28.2683 17.5896 29.0106 17.4589 29.6651Z" fill="white"/>
<path d="M2.18768 24.0479C-1.36367 18.1222 -0.776663 9.57172 5.31755 4.09125C11.3282 -1.31366 20.3922 -1.37478 26.5115 3.97623C32.6414 9.33658 33.4168 17.9316 29.8201 23.98C29.7381 23.8208 29.7836 23.6642 29.7789 23.5165C29.7585 22.8391 29.8311 22.1562 29.6189 21.4919C29.5391 21.2432 29.4699 20.9813 29.3128 20.7797C29.0836 20.486 29.1061 20.2147 29.2084 19.8794C31.4028 12.6914 27.1218 4.83149 19.9028 2.77844C13.1074 0.845503 6.22035 4.03947 3.34005 10.4826C2.34388 12.7109 2.0196 15.056 2.27384 17.4847C2.36807 18.3879 2.54846 19.2708 2.8252 20.1358C2.86382 20.2572 2.91518 20.3697 2.81289 20.514C2.33581 21.185 2.17325 21.9499 2.18598 22.7623C2.1932 23.157 2.18768 23.5517 2.18768 24.0479Z" fill="white"/>
</svg>
