<svg width="21" height="21" viewBox="0 0 21 21" fill="none" xmlns="http://www.w3.org/2000/svg">
<path fill-rule="evenodd" clip-rule="evenodd" d="M19.8408 0H1.15922C0.519107 0.000258683 0.000258683 0.519107 0 1.15922V19.8408C0.000258683 20.4809 0.519107 20.9997 1.15922 21H10.5V12.75H7.98984V9.75H10.5V7.35938C10.5 4.64719 12.3811 3.17062 14.8041 3.17062C15.9633 3.17062 17.2102 3.25781 17.4998 3.29625V6.12891H15.5695C14.2514 6.12891 14.0002 6.75234 14.0002 7.67109V9.75H17.1408L16.7306 12.75H14.0002V21H19.8408C20.4809 20.9997 20.9997 20.4809 21 19.8408V1.15922C20.9997 0.519107 20.4809 0.000258683 19.8408 0Z" fill="#005FAF"/>
</svg>
