<svg width="27" height="24" viewBox="0 0 27 24" fill="none" xmlns="http://www.w3.org/2000/svg">
<path d="M24.7718 12.2331C24.7718 11.3698 24.6931 10.7398 24.5228 10.0864H13.4481V13.983H19.9487C19.8177 14.9514 19.11 16.4097 17.5372 17.3897L17.5151 17.5202L21.0168 19.9349L21.2594 19.9564C23.4874 18.1247 24.7718 15.4297 24.7718 12.2331" fill="#4285F4"/>
<path d="M13.4473 22.5001C16.6321 22.5001 19.3057 21.5667 21.2586 19.9567L17.5364 17.39C16.5404 18.0083 15.2035 18.44 13.4473 18.44C10.3281 18.44 7.68069 16.6083 6.73696 14.0767L6.59863 14.0871L2.95761 16.5955L2.91 16.7133C4.84968 20.1433 8.83395 22.5001 13.4473 22.5001Z" fill="#34A853"/>
<path d="M6.73765 14.0767C6.48864 13.4234 6.34453 12.7233 6.34453 12C6.34453 11.2767 6.48864 10.5767 6.72455 9.92337L6.71796 9.78423L3.0313 7.2356L2.91068 7.28667C2.11124 8.71002 1.65252 10.3084 1.65252 12C1.65252 13.6917 2.11124 15.29 2.91068 16.7133L6.73765 14.0767" fill="#FBBC05"/>
<path d="M13.4474 5.55997C15.6623 5.55997 17.1564 6.41163 18.0083 7.12335L21.3373 4.23C19.2928 2.53834 16.6322 1.5 13.4474 1.5C8.83398 1.5 4.84969 3.85665 2.91 7.28662L6.72388 9.92332C7.68072 7.39166 10.3281 5.55997 13.4474 5.55997" fill="#EB4335"/>
</svg>
