<svg width="29" height="29" viewBox="0 0 29 29" fill="none" xmlns="http://www.w3.org/2000/svg">
<path fill-rule="evenodd" clip-rule="evenodd" d="M13.141 0C13.902 0 14.6629 0 15.424 0C15.4481 0.0506667 15.495 0.0511944 15.5408 0.0538333C16.3993 0.105556 17.2381 0.272157 18.0635 0.5035C19.085 0.789731 20.076 1.15513 20.9939 1.69751C20.9827 1.83016 21.029 1.95225 21.0615 2.07716C21.549 3.95376 21.7385 5.85341 21.4976 7.78578C20.3253 7.41475 19.3754 7.74039 18.5403 8.63057C16.4466 10.8631 14.3211 13.066 12.2161 15.2881C12.0372 15.4769 11.9436 15.5079 11.7478 15.3008C10.8998 14.405 10.0454 13.5145 9.16803 12.6475C8.03858 11.5314 6.16128 11.7628 5.30892 13.1009C4.65535 14.127 4.81193 15.3601 5.72357 16.3036C7.25096 17.8839 8.78187 19.4609 10.3112 21.0395C10.2769 21.0532 10.2435 21.071 10.2081 21.0803C7.89098 21.7019 5.55222 21.793 3.19393 21.3578C2.70328 21.2672 2.21737 21.1523 1.72935 21.0485C0.915343 19.6437 0.441222 18.1216 0.165018 16.5298C0.104324 16.1804 0.111889 15.8205 0 15.4794C0 14.6625 0 13.8461 0 13.0292C0.0511944 13.0059 0.0513706 12.9587 0.0545373 12.9126C0.101334 12.2571 0.214278 11.612 0.368565 10.9744C1.16146 7.69605 2.89574 5.01934 5.55469 2.95274C7.47474 1.46054 9.64514 0.526018 12.0553 0.162731C12.417 0.108722 12.7791 0.0543611 13.141 0Z" fill="#B7B7B7"/>
<path fill-rule="evenodd" clip-rule="evenodd" d="M1.72935 21.0487C2.21737 21.1525 2.70346 21.2674 3.19394 21.358C5.55222 21.7932 7.89098 21.7021 10.2081 21.0806C10.2436 21.0711 10.2769 21.0535 10.3112 21.0398C11.5087 22.0149 13.0347 21.8093 14.0721 20.6416C15.1865 19.3876 16.3771 18.2017 17.5345 16.9862C19.1395 15.3003 20.7461 13.6162 22.3486 11.9282C23.037 11.203 23.2625 10.3505 22.9756 9.38941C22.7465 8.62237 22.215 8.11325 21.4974 7.78602C21.7383 5.85365 21.549 3.954 21.0613 2.0774C21.0288 1.95249 20.9825 1.8304 20.9938 1.69775C25.0869 3.99957 27.5431 7.45827 28.3462 12.0888C28.4071 12.4391 28.3851 12.8015 28.5091 13.1414C28.5091 13.8838 28.5091 14.6264 28.5091 15.3688C28.4046 15.6283 28.4219 15.9068 28.3835 16.1765C27.9823 18.9946 26.8662 21.4926 24.9831 23.6276C22.6774 26.2422 19.795 27.825 16.3412 28.3567C15.9985 28.4095 15.646 28.3966 15.3124 28.5097C14.5885 28.5097 13.8647 28.5097 13.1408 28.5097C13.1107 28.4448 13.0491 28.4593 12.9967 28.4545C10.58 28.2357 8.35666 27.46 6.34178 26.1092C4.39182 24.8016 2.84666 23.1185 1.72935 21.0487Z" fill="#D9D9D9"/>
<path fill-rule="evenodd" clip-rule="evenodd" d="M21.4974 7.78556C22.215 8.11278 22.7467 8.62191 22.9756 9.38895C23.2625 10.35 23.037 11.2027 22.3486 11.9277C20.7461 13.6157 19.1395 15.2999 17.5345 16.9858C16.3771 18.2013 15.1864 19.3872 14.0721 20.6412C13.0347 21.8088 11.5087 22.0145 10.3112 21.0393C8.78186 19.4607 7.25078 17.8837 5.72357 16.3034C4.81174 15.3599 4.65517 14.1268 5.30891 13.1006C6.16127 11.7625 8.03858 11.5312 9.16802 12.6473C10.0454 13.5142 10.8998 14.4048 11.7478 15.3006C11.9436 15.5077 12.0372 15.4767 12.2161 15.2879C14.3211 13.0658 16.4466 10.8629 18.5403 8.63036C19.3752 7.74017 20.3251 7.41453 21.4974 7.78556Z" fill="#FDFEFE"/>
</svg>
